<?xml version="1.0" encoding="UTF-8"?>
<!DOCTYPE svg PUBLIC "-//W3C//DTD SVG 1.1//EN" "http://www.w3.org/Graphics/SVG/1.1/DTD/svg11.dtd">
<svg xmlns="http://www.w3.org/2000/svg" version="1.1" width="616px" height="651px" style="shape-rendering:geometricPrecision; text-rendering:geometricPrecision; image-rendering:optimizeQuality; fill-rule:evenodd; clip-rule:evenodd" xmlns:xlink="http://www.w3.org/1999/xlink">
<g><path style="opacity:0.997" fill="#fefefe" d="M 302.5,-0.5 C 305.5,-0.5 308.5,-0.5 311.5,-0.5C 317.525,1.33136 322.692,4.66469 327,9.5C 367.121,62.3043 411.621,111.471 460.5,157C 487.898,180.06 514.398,204.226 540,229.5C 585.19,280.905 610.356,340.905 615.5,409.5C 615.5,425.5 615.5,441.5 615.5,457.5C 612.143,506.751 595.309,550.751 565,589.5C 532.049,626.325 490.882,646.659 441.5,650.5C 436.167,650.5 430.833,650.5 425.5,650.5C 379.874,647.103 340.708,629.436 308,597.5C 275.831,628.833 237.331,646.499 192.5,650.5C 186.833,650.5 181.167,650.5 175.5,650.5C 99.4343,643.044 46.601,604.044 17,533.5C 7.50735,508.188 1.67402,482.188 -0.5,455.5C -0.5,441.5 -0.5,427.5 -0.5,413.5C 4.79998,332.074 37.1333,263.574 96.5,208C 167.832,149.336 231.666,83.5025 288,10.5C 291.906,5.40438 296.739,1.73772 302.5,-0.5 Z M 307.5,66.5 C 343.601,110.723 382.601,152.557 424.5,192C 444.5,209.667 464.5,227.333 484.5,245C 499.921,260.216 513.921,276.549 526.5,294C 504.576,297.051 482.909,301.385 461.5,307C 428.396,317.721 395.396,328.721 362.5,340C 326.831,348.666 291.164,348.666 255.5,340C 221.178,329.004 186.844,318.004 152.5,307C 131.311,301.662 109.977,297.162 88.5,293.5C 99.8632,277.644 112.53,262.81 126.5,249C 163.233,217.272 199.066,184.439 234,150.5C 259.454,123.221 283.954,95.2207 307.5,66.5 Z M 64.5,341.5 C 101.091,344.585 136.758,352.085 171.5,364C 204.281,375.142 229.448,395.642 247,425.5C 268.949,465.295 279.949,507.962 280,553.5C 246.082,593.918 203.248,608.418 151.5,597C 99.5595,580.054 67.3929,544.888 55,491.5C 44.6896,440.655 47.8563,390.655 64.5,341.5 Z M 544.5,341.5 C 546.833,341.5 549.167,341.5 551.5,341.5C 567.045,388.281 570.545,435.947 562,484.5C 554.959,521.489 537.126,551.989 508.5,576C 462.871,606.609 415.871,608.942 367.5,583C 355.12,574.957 344.287,565.124 335,553.5C 335.963,517.643 342.963,482.976 356,449.5C 368.993,419.189 389.159,395.022 416.5,377C 445.332,362.54 475.665,352.54 507.5,347C 519.943,344.914 532.277,343.08 544.5,341.5 Z M 284.5,394.5 C 299.338,394.629 314.338,394.463 329.5,394C 320.985,408.551 313.819,423.717 308,439.5C 302.222,423.272 294.389,408.272 284.5,394.5 Z"/></g>
</svg>
